<svg width="16" height="16" viewBox="0 0 16 16" fill="none" xmlns="http://www.w3.org/2000/svg">
<g id="Filled">
<path id="Vector" d="M15.1388 14.194C15.3991 14.4543 15.3991 14.8765 15.1388 15.1368C14.8784 15.3972 14.4563 15.3972 14.196 15.1368L8.00114 8.94199L1.80632 15.1368C1.54597 15.3972 1.12386 15.3972 0.863507 15.1368C0.603157 14.8765 0.603159 14.4543 0.863507 14.194L7.05833 7.99918L0.863231 1.80409C0.602881 1.54374 0.602881 1.12163 0.863231 0.861278C1.12358 0.600928 1.54569 0.600928 1.80604 0.861278L8.00114 7.05637L14.1962 0.861278C14.4566 0.600928 14.8787 0.600928 15.139 0.861278C15.3994 1.12163 15.3994 1.54374 15.139 1.80409L8.94395 7.99918L15.1388 14.194Z" fill="#30323B"/>
</g>
</svg>
