<svg width="22" height="22" viewBox="0 0 22 22" fill="none" xmlns="http://www.w3.org/2000/svg">
<path d="M20.1663 11.0003C20.1663 16.063 16.0623 20.167 10.9997 20.167C5.93706 20.167 1.83301 16.063 1.83301 11.0003C1.83301 5.93774 5.93706 1.83368 10.9997 1.83368C16.0623 1.83368 20.1663 5.93774 20.1663 11.0003Z" fill="#737684"/>
<path fill-rule="evenodd" clip-rule="evenodd" d="M14.2412 7.76173C14.5276 8.04811 14.5276 8.51243 14.2412 8.79882L8.7965 14.2435C8.51011 14.5299 8.04579 14.5299 7.75941 14.2435C7.47302 13.9572 7.47302 13.4928 7.75941 13.2065L13.2041 7.76173C13.4905 7.47534 13.9548 7.47534 14.2412 7.76173Z" fill="white"/>
<path fill-rule="evenodd" clip-rule="evenodd" d="M7.7588 7.7622C8.04518 7.47581 8.5095 7.47581 8.79589 7.7622L14.2406 13.2069C14.527 13.4933 14.527 13.9576 14.2406 14.244C13.9542 14.5304 13.4899 14.5304 13.2035 14.244L7.7588 8.79929C7.47241 8.5129 7.47241 8.04858 7.7588 7.7622Z" fill="white"/>
</svg>
