<svg width="16" height="16" viewBox="0 0 16 16" fill="none" xmlns="http://www.w3.org/2000/svg">
<path fill-rule="evenodd" clip-rule="evenodd" d="M2.53333 9.51289C2.82789 9.51289 3.06667 9.75168 3.06667 10.0462V12.1327C3.06667 12.5745 3.42484 12.9327 3.86667 12.9327H12.1328C12.5746 12.9327 12.9328 12.5745 12.9328 12.1327V10.0462C12.9328 9.75168 13.1716 9.51289 13.4661 9.51289C13.7607 9.51289 13.9995 9.75168 13.9995 10.0462V12.1327C13.9995 13.1636 13.1637 13.9994 12.1328 13.9994H3.86667C2.83573 13.9994 2 13.1636 2 12.1327V10.0462C2 9.75168 2.23878 9.51289 2.53333 9.51289Z" fill="#30323B"/>
<path d="M8.53258 8.75955L9.66899 7.62314C9.87727 7.41486 10.215 7.41486 10.4232 7.62314C10.6315 7.83142 10.6315 8.1691 10.4232 8.37738L8.37779 10.4228C8.16951 10.6311 7.83182 10.6311 7.62354 10.4228L5.57808 8.37738C5.36981 8.1691 5.36981 7.83142 5.57808 7.62314C5.78636 7.41486 6.12405 7.41486 6.33233 7.62314L7.46591 8.75671L7.46591 2.53333C7.46591 2.23878 7.70469 2 7.99924 2C8.29379 2 8.53258 2.23878 8.53258 2.53333L8.53258 8.75955Z" fill="#30323B"/>
</svg>
