<svg width="16" height="16" viewBox="0 0 16 16" fill="none" xmlns="http://www.w3.org/2000/svg">
<g id="icon/download">
<g id="Filled">
<path id="Vector" fill-rule="evenodd" clip-rule="evenodd" d="M2.53333 9.513C2.82789 9.513 3.06667 9.75178 3.06667 10.0463V12.1328C3.06667 12.5746 3.42484 12.9328 3.86667 12.9328H12.1328C12.5746 12.9328 12.9328 12.5746 12.9328 12.1328V10.0463C12.9328 9.75178 13.1716 9.513 13.4661 9.513C13.7607 9.513 13.9995 9.75178 13.9995 10.0463V12.1328C13.9995 13.1637 13.1637 13.9995 12.1328 13.9995H3.86667C2.83573 13.9995 2 13.1637 2 12.1328V10.0463C2 9.75178 2.23878 9.513 2.53333 9.513Z" fill="#30323B"/>
<path id="Vector_2" d="M8.53258 8.75955L9.66899 7.62314C9.87727 7.41486 10.215 7.41486 10.4232 7.62314C10.6315 7.83142 10.6315 8.1691 10.4232 8.37738L8.37779 10.4228C8.16951 10.6311 7.83182 10.6311 7.62354 10.4228L5.57808 8.37738C5.36981 8.1691 5.36981 7.83142 5.57808 7.62314C5.78636 7.41486 6.12405 7.41486 6.33233 7.62314L7.46591 8.75671L7.46591 2.53333C7.46591 2.23878 7.70469 2 7.99924 2C8.29379 2 8.53258 2.23878 8.53258 2.53333L8.53258 8.75955Z" fill="#30323B"/>
</g>
</g>
</svg>
