<svg width="16" height="12" viewBox="0 0 16 12" fill="none" xmlns="http://www.w3.org/2000/svg">
<path fill-rule="evenodd" clip-rule="evenodd" d="M0.333008 1.00004C0.333008 0.631851 0.631485 0.333374 0.999674 0.333374H14.9997C15.3679 0.333374 15.6663 0.631851 15.6663 1.00004C15.6663 1.36823 15.3679 1.66671 14.9997 1.66671H0.999674C0.631485 1.66671 0.333008 1.36823 0.333008 1.00004Z" fill="#30323B"/>
<path fill-rule="evenodd" clip-rule="evenodd" d="M0.333008 11C0.333008 10.6319 0.631485 10.3334 0.999674 10.3334H14.9997C15.3679 10.3334 15.6663 10.6319 15.6663 11C15.6663 11.3682 15.3679 11.6667 14.9997 11.6667H0.999674C0.631485 11.6667 0.333008 11.3682 0.333008 11Z" fill="#30323B"/>
<path fill-rule="evenodd" clip-rule="evenodd" d="M0.333008 6.00004C0.333008 5.63185 0.631485 5.33337 0.999674 5.33337H14.9997C15.3679 5.33337 15.6663 5.63185 15.6663 6.00004C15.6663 6.36823 15.3679 6.66671 14.9997 6.66671H0.999674C0.631485 6.66671 0.333008 6.36823 0.333008 6.00004Z" fill="#30323B"/>
</svg>
