<svg width="20" height="20" viewBox="0 0 20 20" fill="none" xmlns="http://www.w3.org/2000/svg">
<g id="icon/filter">
<g id="Vector">
<path fill-rule="evenodd" clip-rule="evenodd" d="M6.24967 6.66667C7.40027 6.66667 8.33301 5.73393 8.33301 4.58333C8.33301 3.43274 7.40027 2.5 6.24967 2.5C5.09908 2.5 4.16634 3.43274 4.16634 4.58333C4.16634 5.73393 5.09908 6.66667 6.24967 6.66667ZM6.24967 5.33333C6.66389 5.33333 6.99967 4.99755 6.99967 4.58333C6.99967 4.16912 6.66389 3.83333 6.24967 3.83333C5.83546 3.83333 5.49967 4.16912 5.49967 4.58333C5.49967 4.99755 5.83546 5.33333 6.24967 5.33333Z" fill="#30323B"/>
<path fill-rule="evenodd" clip-rule="evenodd" d="M13.7497 12.0833C14.9003 12.0833 15.833 11.1506 15.833 10C15.833 8.84941 14.9003 7.91667 13.7497 7.91667C12.5991 7.91667 11.6663 8.84941 11.6663 10C11.6663 11.1506 12.5991 12.0833 13.7497 12.0833ZM13.7497 10.75C14.1639 10.75 14.4997 10.4142 14.4997 10C14.4997 9.58579 14.1639 9.25 13.7497 9.25C13.3355 9.25 12.9997 9.58579 12.9997 10C12.9997 10.4142 13.3355 10.75 13.7497 10.75Z" fill="#30323B"/>
<path fill-rule="evenodd" clip-rule="evenodd" d="M8.74967 17.5033C9.90027 17.5033 10.833 16.5705 10.833 15.4199C10.833 14.2693 9.90027 13.3366 8.74967 13.3366C7.59908 13.3366 6.66634 14.2693 6.66634 15.4199C6.66634 16.5705 7.59908 17.5033 8.74967 17.5033ZM8.74967 16.1699C9.16389 16.1699 9.49967 15.8341 9.49967 15.4199C9.49967 15.0057 9.16389 14.6699 8.74967 14.6699C8.33546 14.6699 7.99967 15.0057 7.99967 15.4199C7.99967 15.8341 8.33546 16.1699 8.74967 16.1699Z" fill="#30323B"/>
<path d="M8.22428 5.24935C8.29479 5.04022 8.33301 4.81624 8.33301 4.58333C8.33301 4.34994 8.29463 4.12551 8.22384 3.91602H17.0824C17.4505 3.91602 17.749 4.21449 17.749 4.58268C17.749 4.95087 17.4505 5.24935 17.0824 5.24935H8.22428Z" fill="#30323B"/>
<path d="M4.27507 5.24935H2.91569C2.5475 5.24935 2.24902 4.95087 2.24902 4.58268C2.24902 4.21449 2.5475 3.91602 2.91569 3.91602H4.27551C4.20472 4.12551 4.16634 4.34994 4.16634 4.58333C4.16634 4.81624 4.20456 5.04022 4.27507 5.24935Z" fill="#30323B"/>
<path d="M15.7243 10.666C15.7948 10.4569 15.833 10.2329 15.833 10C15.833 9.76661 15.7946 9.54218 15.7238 9.33268H17.0824C17.4505 9.33268 17.749 9.63116 17.749 9.99935C17.749 10.3675 17.4505 10.666 17.0824 10.666H15.7243Z" fill="#30323B"/>
<path d="M11.7751 10.666H2.91569C2.5475 10.666 2.24902 10.3675 2.24902 9.99935C2.24902 9.63116 2.5475 9.33268 2.91569 9.33268H11.7755C11.7047 9.54218 11.6663 9.76661 11.6663 10C11.6663 10.2329 11.7046 10.4569 11.7751 10.666Z" fill="#30323B"/>
<path d="M10.7232 16.0859C10.7944 15.8759 10.833 15.6508 10.833 15.4167C10.833 15.1845 10.795 14.9612 10.7249 14.7526H17.0824C17.4505 14.7526 17.749 15.0511 17.749 15.4193C17.749 15.7875 17.4505 16.0859 17.0824 16.0859H10.7232Z" fill="#30323B"/>
<path d="M6.77617 16.0859H2.91569C2.5475 16.0859 2.24902 15.7875 2.24902 15.4193C2.24902 15.0511 2.5475 14.7526 2.91569 14.7526H6.77441C6.70432 14.9612 6.66634 15.1845 6.66634 15.4167C6.66634 15.6508 6.70496 15.8759 6.77617 16.0859Z" fill="#30323B"/>
</g>
</g>
</svg>
