<svg width="14" height="14" viewBox="0 0 14 14" fill="none" xmlns="http://www.w3.org/2000/svg">
<path fill-rule="evenodd" clip-rule="evenodd" d="M0.727411 0.72912C0.970404 0.486127 1.36437 0.486127 1.60737 0.72912L7.4407 6.56245C7.68369 6.80545 7.68369 7.19942 7.4407 7.44241L1.60737 13.2757C1.36437 13.5187 0.970404 13.5187 0.727411 13.2757C0.484418 13.0328 0.484418 12.6388 0.727411 12.3958L6.12077 7.00243L0.727411 1.60907C0.484418 1.36608 0.484418 0.972113 0.727411 0.72912Z" fill="#101116"/>
<path fill-rule="evenodd" clip-rule="evenodd" d="M6.56074 0.72912C6.80374 0.486127 7.19771 0.486127 7.4407 0.72912L13.274 6.56245C13.517 6.80545 13.517 7.19942 13.274 7.44241L7.4407 13.2757C7.19771 13.5187 6.80374 13.5187 6.56074 13.2757C6.31775 13.0328 6.31775 12.6388 6.56074 12.3958L11.9541 7.00243L6.56074 1.60907C6.31775 1.36608 6.31775 0.972113 6.56074 0.72912Z" fill="#101116"/>
</svg>
