<svg width="14" height="14" viewBox="0 0 14 14" fill="none" xmlns="http://www.w3.org/2000/svg">
<path fill-rule="evenodd" clip-rule="evenodd" d="M7.4407 13.274C7.68369 13.031 7.68369 12.637 7.4407 12.394L2.04734 7.00068L7.4407 1.60732C7.68369 1.36433 7.68369 0.970362 7.4407 0.72737C7.19771 0.484377 6.80374 0.484377 6.56074 0.72737L0.727411 6.5607C0.484418 6.8037 0.484418 7.19767 0.727411 7.44066L6.56074 13.274C6.80374 13.517 7.19771 13.517 7.4407 13.274Z" fill="#101116"/>
<path fill-rule="evenodd" clip-rule="evenodd" d="M13.274 13.274C13.517 13.031 13.517 12.637 13.274 12.394L7.88068 7.00068L13.274 1.60732C13.517 1.36433 13.517 0.970362 13.274 0.72737C13.031 0.484377 12.6371 0.484377 12.3941 0.72737L6.56074 6.5607C6.31775 6.8037 6.31775 7.19767 6.56074 7.44066L12.3941 13.274C12.6371 13.517 13.031 13.517 13.274 13.274Z" fill="#101116"/>
</svg>
