<svg width="16" height="17" viewBox="0 0 16 17" fill="none" xmlns="http://www.w3.org/2000/svg">
<g id="Filled">
<path id="Vector" fill-rule="evenodd" clip-rule="evenodd" d="M7.58333 0.666687C3.67132 0.666687 0.5 3.838 0.5 7.75002C0.5 11.662 3.67132 14.8334 7.58333 14.8334C9.02754 14.8334 10.3708 14.4011 11.4908 13.659C11.5131 13.6882 11.5377 13.7163 11.5644 13.743L14.0808 16.2595C14.4063 16.5849 14.9339 16.5849 15.2593 16.2595C15.5848 15.934 15.5848 15.4064 15.2593 15.081L12.7616 12.5832C13.9434 11.3176 14.6667 9.61826 14.6667 7.75002C14.6667 3.838 11.4954 0.666687 7.58333 0.666687ZM2.16667 7.75002C2.16667 4.75848 4.59179 2.33335 7.58333 2.33335C10.5749 2.33335 13 4.75848 13 7.75002C13 10.7416 10.5749 13.1667 7.58333 13.1667C4.59179 13.1667 2.16667 10.7416 2.16667 7.75002Z" fill="#1F2128"/>
</g>
</svg>
