<svg width="14" height="15" viewBox="0 0 14 15" fill="none" xmlns="http://www.w3.org/2000/svg">
<g id="Filled">
<path id="Vector" d="M2.5 15H10.8333C12.5 15 13.3333 14.1667 13.3333 12.5V2.5C13.3333 0.833333 12.5 0 10.8333 0H2.5C0.833333 0 0 0.833333 0 2.5V12.5C0 14.1667 0.833333 15 2.5 15Z" fill="#EAF3FF"/>
<g id="Vector_2">
<path d="M5.83325 11.5039C5.46506 11.5039 5.16659 11.2054 5.16659 10.8372C5.16659 10.469 5.46506 10.1706 5.83325 10.1706H9.99992C10.3681 10.1706 10.6666 10.469 10.6666 10.8372C10.6666 11.2054 10.3681 11.5039 9.99992 11.5039H5.83325Z" fill="#1A71E5"/>
<path d="M3.33325 10.2122C3.67843 10.2122 3.95825 10.4921 3.95825 10.8372C3.95825 11.1824 3.67843 11.4622 3.33325 11.4622C2.98807 11.4622 2.70825 11.1824 2.70825 10.8372C2.70825 10.4921 2.98807 10.2122 3.33325 10.2122Z" fill="#1A71E5"/>
<path d="M3.95825 7.50228C3.95825 7.1571 3.67843 6.87728 3.33325 6.87728C2.98807 6.87728 2.70825 7.1571 2.70825 7.50228C2.70825 7.84746 2.98807 8.12728 3.33325 8.12728C3.67843 8.12728 3.95825 7.84746 3.95825 7.50228Z" fill="#1A71E5"/>
<path d="M5.83325 8.16895C5.46506 8.16895 5.16659 7.87047 5.16659 7.50228C5.16659 7.13409 5.46506 6.83561 5.83325 6.83561H9.99992C10.3681 6.83561 10.6666 7.13409 10.6666 7.50228C10.6666 7.87047 10.3681 8.16895 9.99992 8.16895H5.83325Z" fill="#1A71E5"/>
<path d="M3.95825 4.16895C3.95825 3.82377 3.67843 3.54395 3.33325 3.54395C2.98807 3.54395 2.70825 3.82377 2.70825 4.16895C2.70825 4.51412 2.98807 4.79395 3.33325 4.79395C3.67843 4.79395 3.95825 4.51412 3.95825 4.16895Z" fill="#1A71E5"/>
<path d="M5.83325 4.83561C5.46506 4.83561 5.16659 4.53714 5.16659 4.16895C5.16659 3.80076 5.46506 3.50228 5.83325 3.50228H9.99992C10.3681 3.50228 10.6666 3.80076 10.6666 4.16895C10.6666 4.53714 10.3681 4.83561 9.99992 4.83561H5.83325Z" fill="#1A71E5"/>
</g>
</g>
</svg>
