<svg width="8" height="8" viewBox="0 0 8 8" fill="none" xmlns="http://www.w3.org/2000/svg">
<path id="Union" d="M0.9 6.9C0.9 7.01046 0.989543 7.1 1.1 7.1H2.17239C2.28285 7.1 2.3724 7.01046 2.3724 6.9V4.36902H5.6276V6.9C5.6276 7.01046 5.71715 7.1 5.8276 7.1H6.9C7.01046 7.1 7.1 7.01046 7.1 6.9V1.1C7.1 0.989543 7.01046 0.9 6.9 0.9H5.8276C5.71715 0.9 5.6276 0.989543 5.6276 1.1L5.6276 3.34565L2.3724 3.34565V1.1C2.3724 0.989543 2.28285 0.9 2.1724 0.9H1.1C0.989543 0.9 0.9 0.989543 0.9 1.1V6.9Z" fill="#1A71E5" stroke="#1A71E5" stroke-width="0.2"/>
</svg>
