<svg width="20" height="20" viewBox="0 0 20 20" fill="none" xmlns="http://www.w3.org/2000/svg">
<path fill-rule="evenodd" clip-rule="evenodd" d="M9.13256 18H5.5C3.83333 18 3 17.1667 3 15.5V5.5C3 3.83333 3.83333 3 5.5 3H13.8333C15.5 3 16.3333 3.83333 16.3333 5.5V8.14634C15.6118 7.85849 14.8245 7.7002 14.0002 7.7002C10.5208 7.7002 7.7002 10.5208 7.7002 14.0002C7.7002 15.5189 8.23758 16.9121 9.13256 18Z" fill="#979BAA"/>
<path fill-rule="evenodd" clip-rule="evenodd" d="M8.16634 7.16911C8.16634 7.5373 8.46482 7.83577 8.83301 7.83577H12.6935C12.9104 7.79004 13.1315 7.75547 13.356 7.73268C13.5425 7.6145 13.6663 7.40627 13.6663 7.16911C13.6663 6.80092 13.3679 6.50244 12.9997 6.50244H8.83301C8.46482 6.50244 8.16634 6.80092 8.16634 7.16911ZM6.95801 7.16911C6.95801 6.82393 6.67819 6.54411 6.33301 6.54411C5.98783 6.54411 5.70801 6.82393 5.70801 7.16911C5.70801 7.51429 5.98783 7.79411 6.33301 7.79411C6.67819 7.79411 6.95801 7.51429 6.95801 7.16911ZM6.33301 9.87744C6.67819 9.87744 6.95801 10.1573 6.95801 10.5024C6.95801 10.8476 6.67819 11.1274 6.33301 11.1274C5.98783 11.1274 5.70801 10.8476 5.70801 10.5024C5.70801 10.1573 5.98783 9.87744 6.33301 9.87744ZM6.95801 13.8374C6.95801 13.4922 6.67819 13.2124 6.33301 13.2124C5.98783 13.2124 5.70801 13.4922 5.70801 13.8374C5.70801 14.1826 5.98783 14.4624 6.33301 14.4624C6.67819 14.4624 6.95801 14.1826 6.95801 13.8374Z" fill="#F3F4F7"/>
<path d="M19.3473 14.0001C19.3473 16.9532 16.9532 19.3473 14.0001 19.3473C11.0469 19.3473 8.65283 16.9532 8.65283 14.0001C8.65283 11.0469 11.0469 8.65283 14.0001 8.65283C16.9532 8.65283 19.3473 11.0469 19.3473 14.0001Z" fill="#5A5E6C"/>
<path fill-rule="evenodd" clip-rule="evenodd" d="M16.3707 11.6305C16.5802 11.84 16.5802 12.1796 16.3707 12.3891L12.3881 16.3716C12.1786 16.5811 11.839 16.5811 11.6295 16.3716C11.4201 16.1622 11.4201 15.8225 11.6295 15.6131L15.6121 11.6305C15.8216 11.421 16.1612 11.421 16.3707 11.6305Z" fill="white"/>
<path fill-rule="evenodd" clip-rule="evenodd" d="M11.6295 11.6308C11.839 11.4213 12.1786 11.4213 12.3881 11.6308L16.3707 15.6134C16.5801 15.8229 16.5801 16.1625 16.3707 16.372C16.1612 16.5815 15.8216 16.5815 15.6121 16.372L11.6295 12.3894C11.42 12.1799 11.42 11.8403 11.6295 11.6308Z" fill="white"/>
</svg>
