<svg width="15" height="14" viewBox="0 0 15 14" fill="none" xmlns="http://www.w3.org/2000/svg">
<ellipse cx="7.00757" cy="7" rx="6.00659" ry="6" fill="white"/>
<path fill-rule="evenodd" clip-rule="evenodd" d="M7.00757 1.96C4.221 1.96 1.96203 4.21649 1.96203 7C1.96203 9.78352 4.221 12.04 7.00757 12.04C9.79415 12.04 12.0531 9.78352 12.0531 7C12.0531 4.21649 9.79415 1.96 7.00757 1.96ZM1.00098 7C1.00098 3.68629 3.69022 1 7.00757 1C10.3249 1 13.0142 3.68629 13.0142 7C13.0142 10.3137 10.3249 13 7.00757 13C3.69022 13 1.00098 10.3137 1.00098 7Z" fill="#979BAA"/>
<path fill-rule="evenodd" clip-rule="evenodd" d="M6.99987 3.6897C7.2576 3.6897 7.46654 3.89863 7.46654 4.15636V6.80707L9.59351 9.00024C9.77575 9.18249 9.77575 9.47797 9.59351 9.66021C9.41126 9.84245 9.11578 9.84245 8.93354 9.66021L6.66989 7.33036C6.58237 7.24284 6.5332 7.12414 6.5332 7.00037V4.15636C6.5332 3.89863 6.74214 3.6897 6.99987 3.6897Z" fill="#979BAA" stroke="#979BAA" stroke-width="0.4" stroke-linecap="round" stroke-linejoin="round"/>
</svg>
