<svg width="14" height="15" viewBox="0 0 14 15" fill="none" xmlns="http://www.w3.org/2000/svg">
<g id="Filled">
<path id="Vector" d="M2.5 15H10.8333C12.5 15 13.3333 14.1667 13.3333 12.5V2.5C13.3333 0.833333 12.5 0 10.8333 0H2.5C0.833333 0 0 0.833333 0 2.5V12.5C0 14.1667 0.833333 15 2.5 15Z" fill="#979BAA"/>
<g id="Vector_2">
<path d="M5.83301 11.5039C5.46482 11.5039 5.16634 11.2054 5.16634 10.8372C5.16634 10.469 5.46482 10.1706 5.83301 10.1706H9.99967C10.3679 10.1706 10.6663 10.469 10.6663 10.8372C10.6663 11.2054 10.3679 11.5039 9.99967 11.5039H5.83301Z" fill="#F3F4F7"/>
<path d="M3.33301 10.2122C3.67819 10.2122 3.95801 10.4921 3.95801 10.8372C3.95801 11.1824 3.67819 11.4622 3.33301 11.4622C2.98783 11.4622 2.70801 11.1824 2.70801 10.8372C2.70801 10.4921 2.98783 10.2122 3.33301 10.2122Z" fill="#F3F4F7"/>
<path d="M3.95801 7.50228C3.95801 7.1571 3.67819 6.87728 3.33301 6.87728C2.98783 6.87728 2.70801 7.1571 2.70801 7.50228C2.70801 7.84746 2.98783 8.12728 3.33301 8.12728C3.67819 8.12728 3.95801 7.84746 3.95801 7.50228Z" fill="#F3F4F7"/>
<path d="M5.83301 8.16895C5.46482 8.16895 5.16634 7.87047 5.16634 7.50228C5.16634 7.13409 5.46482 6.83561 5.83301 6.83561H9.99967C10.3679 6.83561 10.6663 7.13409 10.6663 7.50228C10.6663 7.87047 10.3679 8.16895 9.99967 8.16895H5.83301Z" fill="#F3F4F7"/>
<path d="M3.95801 4.16895C3.95801 3.82377 3.67819 3.54395 3.33301 3.54395C2.98783 3.54395 2.70801 3.82377 2.70801 4.16895C2.70801 4.51412 2.98783 4.79395 3.33301 4.79395C3.67819 4.79395 3.95801 4.51412 3.95801 4.16895Z" fill="#F3F4F7"/>
<path d="M5.83301 4.83561C5.46482 4.83561 5.16634 4.53714 5.16634 4.16895C5.16634 3.80076 5.46482 3.50228 5.83301 3.50228H9.99967C10.3679 3.50228 10.6663 3.80076 10.6663 4.16895C10.6663 4.53714 10.3679 4.83561 9.99967 4.83561H5.83301Z" fill="#F3F4F7"/>
</g>
</g>
</svg>
