<svg width="16" height="16" viewBox="0 0 16 16" fill="none" xmlns="http://www.w3.org/2000/svg">
<path fill-rule="evenodd" clip-rule="evenodd" d="M2.53333 9.46889C2.82789 9.46889 3.06667 9.70767 3.06667 10.0022V12.1356C3.06667 12.5774 3.42484 12.9356 3.86667 12.9356H12.1328C12.5746 12.9356 12.9328 12.5774 12.9328 12.1356V10.0022C12.9328 9.70767 13.1716 9.46889 13.4661 9.46889C13.7607 9.46889 13.9995 9.70767 13.9995 10.0022V12.1356C13.9995 13.1665 13.1637 14.0022 12.1328 14.0022H3.86667C2.83573 14.0022 2 13.1665 2 12.1356V10.0022C2 9.70767 2.23878 9.46889 2.53333 9.46889Z" fill="#30323B"/>
<path d="M8.3766 2.16155C8.16832 1.95327 7.83064 1.95327 7.62236 2.16155L5.28902 4.49488C5.08074 4.70316 5.08074 5.04085 5.28902 5.24913C5.4973 5.45741 5.83499 5.45741 6.04327 5.24913L7.46719 3.82522L7.46719 10.1361C7.46719 10.4306 7.70597 10.6694 8.00052 10.6694C8.29507 10.6694 8.53385 10.4306 8.53385 10.1361L8.53385 3.82729L9.95569 5.24913C10.164 5.45741 10.5017 5.45741 10.7099 5.24913C10.9182 5.04085 10.9182 4.70316 10.7099 4.49488L8.3766 2.16155Z" fill="#30323B"/>
</svg>
