<svg width="16" height="16" viewBox="0 0 16 16" fill="none" xmlns="http://www.w3.org/2000/svg">
<g id="icon/upload">
<g id="Filled">
<path id="Vector" fill-rule="evenodd" clip-rule="evenodd" d="M2.53333 9.46893C2.82789 9.46893 3.06667 9.70771 3.06667 10.0023V12.1356C3.06667 12.5774 3.42484 12.9356 3.86667 12.9356H12.1328C12.5746 12.9356 12.9328 12.5774 12.9328 12.1356V10.0023C12.9328 9.70771 13.1716 9.46893 13.4661 9.46893C13.7607 9.46893 13.9995 9.70771 13.9995 10.0023V12.1356C13.9995 13.1665 13.1637 14.0023 12.1328 14.0023H3.86667C2.83573 14.0023 2 13.1665 2 12.1356V10.0023C2 9.70771 2.23878 9.46893 2.53333 9.46893Z" fill="#30323B"/>
<path id="Vector_2" d="M8.3766 2.16152C8.16832 1.95324 7.83064 1.95324 7.62236 2.16152L5.28902 4.49485C5.08074 4.70313 5.08074 5.04082 5.28902 5.2491C5.4973 5.45738 5.83499 5.45738 6.04327 5.2491L7.46719 3.82518L7.46719 10.136C7.46719 10.4306 7.70597 10.6694 8.00052 10.6694C8.29507 10.6694 8.53385 10.4306 8.53385 10.136L8.53385 3.82726L9.95569 5.2491C10.164 5.45738 10.5017 5.45738 10.7099 5.2491C10.9182 5.04082 10.9182 4.70313 10.7099 4.49485L8.3766 2.16152Z" fill="#30323B"/>
</g>
</g>
</svg>
